# Blender v3.2.0 OBJ File: 'place.blend'
# www.blender.org
v -100.000000 -0.500007 -85.000000
v -100.000000 -5.500008 -84.999992
v -100.000000 -0.499993 84.999985
v -100.000000 -5.499992 84.999992
v 100.000000 -0.500007 -85.000000
v 100.000000 -5.500008 -84.999992
v 100.000000 -0.499993 84.999985
v 100.000000 -5.499992 84.999992
vt 0.625000 0.000000
vt 0.375000 0.250000
vt 0.375000 0.000000
vt 0.625000 0.250000
vt 0.375000 0.500000
vt 0.625000 0.500000
vt 0.375000 0.750000
vt 0.625000 0.750000
vt 0.375000 1.000000
vt 1.000000 0.000000
vt 0.000000 1.000000
vt 0.000000 0.000000
vt 0.875000 0.500000
vt 0.625000 1.000000
vt 1.000000 1.000000
vt 0.875000 0.750000
vn -1.0000 -0.0000 0.0000
vn 0.0000 0.0000 1.0000
vn 1.0000 0.0000 0.0000
vn 0.0000 -0.0000 -1.0000
vn 0.0000 1.0000 -0.0000
vn 0.0000 -1.0000 0.0000
s off
f 2/1/1 3/2/1 1/3/1
f 4/4/2 7/5/2 3/2/2
f 8/6/3 5/7/3 7/5/3
f 6/8/4 1/9/4 5/7/4
f 7/10/5 1/11/5 3/12/5
f 4/13/6 6/8/6 8/6/6
f 2/1/1 4/4/1 3/2/1
f 4/4/2 8/6/2 7/5/2
f 8/6/3 6/8/3 5/7/3
f 6/8/4 2/14/4 1/9/4
f 7/10/5 5/15/5 1/11/5
f 4/13/6 2/16/6 6/8/6
v 100.000000 -5.500000 -85.000008
v 100.000000 64.500000 -85.000015
v 100.000000 -5.500000 -80.000008
v 100.000000 64.500000 -80.000015
v -100.000000 -5.500000 -84.999985
v -100.000000 64.500000 -84.999992
v -100.000000 -5.500000 -79.999985
v -100.000000 64.500000 -79.999992
vt 0.625000 0.000000
vt 0.375000 0.250000
vt 0.375000 0.000000
vt 1.000000 0.000000
vt 0.000000 1.000000
vt 0.000000 0.000000
vt 0.625000 0.500000
vt 0.375000 0.750000
vt 0.375000 0.500000
vt 0.625000 0.750000
vt 0.375000 1.000000
vt 0.125000 0.750000
vt 0.125000 0.500000
vt 0.875000 0.500000
vt 0.625000 0.250000
vt 1.000000 1.000000
vt 0.625000 1.000000
vt 0.875000 0.750000
vn 1.0000 0.0000 0.0000
vn 0.0000 0.0000 1.0000
vn -1.0000 0.0000 0.0000
vn -0.0000 -0.0000 -1.0000
vn 0.0000 -1.0000 0.0000
vn 0.0000 1.0000 0.0000
s off
f 10/17/7 11/18/7 9/19/7
f 12/20/8 15/21/8 11/22/8
f 16/23/9 13/24/9 15/25/9
f 14/26/10 9/27/10 13/24/10
f 15/25/11 9/28/11 11/29/11
f 12/30/12 14/26/12 16/23/12
f 10/17/7 12/31/7 11/18/7
f 12/20/8 16/32/8 15/21/8
f 16/23/9 14/26/9 13/24/9
f 14/26/10 10/33/10 9/27/10
f 15/25/11 13/24/11 9/28/11
f 12/30/12 10/34/12 14/26/12
v 100.000000 -5.500000 80.032791
v 100.000000 64.500000 80.032791
v 100.000000 -5.500000 85.032791
v 100.000000 64.500000 85.032791
v -100.000000 -5.500000 80.032814
v -100.000000 64.500000 80.032806
v -100.000000 -5.500000 84.901611
v -100.000000 64.500000 84.901604
vt 0.625000 0.000000
vt 0.375000 0.250000
vt 0.375000 0.000000
vt 0.625000 0.250000
vt 0.375000 0.500000
vt 0.625000 0.500000
vt 0.375000 0.750000
vt 1.000000 0.000000
vt 0.000000 1.000000
vt 0.000000 0.000000
vt 0.125000 0.750000
vt 0.125000 0.500000
vt 0.875000 0.750000
vt 0.625000 0.750000
vt 1.000000 1.000000
vt 0.875000 0.500000
vn 1.0000 0.0000 0.0000
vn -0.0007 0.0000 1.0000
vn -1.0000 0.0000 0.0000
vn -0.0000 -0.0000 -1.0000
vn 0.0000 -1.0000 0.0000
vn 0.0000 1.0000 0.0000
s off
f 18/35/13 19/36/13 17/37/13
f 20/38/14 23/39/14 19/36/14
f 24/40/15 21/41/15 23/39/15
f 22/42/16 17/43/16 21/44/16
f 23/39/17 17/45/17 19/46/17
f 24/40/18 18/47/18 22/48/18
f 18/35/13 20/38/13 19/36/13
f 20/38/14 24/40/14 23/39/14
f 24/40/15 22/48/15 21/41/15
f 22/42/16 18/49/16 17/43/16
f 23/39/17 21/41/17 17/45/17
f 24/40/18 20/50/18 18/47/18
v 99.999992 -5.500008 -85.000000
v 99.999992 64.499992 -85.000000
v 100.000008 -5.499992 85.000000
v 100.000008 64.500008 85.000000
v 94.999992 -5.500008 -85.000000
v 94.999992 64.499992 -85.000000
v 95.000008 -5.499992 85.000000
v 95.000008 64.500008 85.000000
vt 0.625000 0.000000
vt 0.375000 0.250000
vt 0.375000 0.000000
vt 0.625000 0.250000
vt 0.375000 0.500000
vt 1.000000 0.000000
vt 0.000000 1.000000
vt 0.000000 0.000000
vt 0.625000 0.750000
vt 0.375000 1.000000
vt 0.375000 0.750000
vt 0.125000 0.750000
vt 0.125000 0.500000
vt 0.875000 0.500000
vt 0.625000 0.500000
vt 1.000000 1.000000
vt 0.625000 1.000000
vt 0.875000 0.750000
vn 1.0000 0.0000 -0.0000
vn 0.0000 0.0000 1.0000
vn -1.0000 0.0000 0.0000
vn 0.0000 0.0000 -1.0000
vn 0.0000 -1.0000 0.0000
vn 0.0000 1.0000 -0.0000
s off
f 26/51/19 27/52/19 25/53/19
f 28/54/20 31/55/20 27/52/20
f 32/56/21 29/57/21 31/58/21
f 30/59/22 25/60/22 29/61/22
f 31/55/23 25/62/23 27/63/23
f 28/64/24 30/59/24 32/65/24
f 26/51/19 28/54/19 27/52/19
f 28/54/20 32/65/20 31/55/20
f 32/56/21 30/66/21 29/57/21
f 30/59/22 26/67/22 25/60/22
f 31/55/23 29/61/23 25/62/23
f 28/64/24 26/68/24 30/59/24
v -95.000008 -5.500008 -85.000000
v -95.000008 64.499992 -85.000000
v -94.999992 -5.499992 85.000000
v -94.999992 64.500008 85.000000
v -100.000008 -5.500008 -85.000000
v -100.000008 64.499992 -85.000000
v -99.999992 -5.499992 85.000000
v -99.999992 64.500008 85.000000
vt 1.000000 0.000000
vt 0.000000 1.000000
vt 0.000000 0.000000
vt 0.625000 0.250000
vt 0.375000 0.500000
vt 0.375000 0.250000
vt 0.625000 0.500000
vt 0.375000 0.750000
vt 0.625000 0.750000
vt 0.375000 1.000000
vt 0.125000 0.750000
vt 0.125000 0.500000
vt 0.875000 0.500000
vt 1.000000 1.000000
vt 0.625000 1.000000
vt 0.875000 0.750000
vn 1.0000 0.0000 -0.0000
vn 0.0000 0.0000 1.0000
vn -1.0000 0.0000 0.0000
vn 0.0000 0.0000 -1.0000
vn 0.0000 -1.0000 0.0000
vn 0.0000 1.0000 -0.0000
s off
f 34/69/25 35/70/25 33/71/25
f 36/72/26 39/73/26 35/74/26
f 40/75/27 37/76/27 39/73/27
f 38/77/28 33/78/28 37/76/28
f 39/73/29 33/79/29 35/80/29
f 36/81/30 38/77/30 40/75/30
f 34/69/25 36/82/25 35/70/25
f 36/72/26 40/75/26 39/73/26
f 40/75/27 38/77/27 37/76/27
f 38/77/28 34/83/28 33/78/28
f 39/73/29 37/76/29 33/79/29
f 36/81/30 34/84/30 38/77/30
v -100.000000 -3.000000 -38.999996
v -100.000000 17.000000 -38.999996
v -100.000000 -3.000000 -78.999985
v -100.000000 17.000000 -78.999992
v 100.000000 -3.000000 -38.999996
v 100.000000 17.000000 -38.999996
v 100.000000 -3.000000 -78.999992
v 100.000000 17.000000 -78.999992
vt 0.625000 0.000000
vt 0.375000 0.250000
vt 0.375000 0.000000
vt 0.625000 0.250000
vt 0.375000 0.500000
vt 0.625000 0.500000
vt 0.375000 0.750000
vt 1.000000 0.000000
vt 0.000000 1.000000
vt 0.000000 0.000000
vt 0.125000 0.750000
vt 0.125000 0.500000
vt 1.000000 0.000000
vt 0.000000 1.000000
vt 0.000000 0.000000
vt 0.625000 0.750000
vt 1.000000 1.000000
vn -1.0000 0.0000 0.0000
vn -0.0000 -0.0000 -1.0000
vn 1.0000 0.0000 0.0000
vn 0.0000 0.0000 1.0000
vn 0.0000 -1.0000 0.0000
vn 0.0000 1.0000 0.0000
s off
f 42/85/31 43/86/31 41/87/31
f 44/88/32 47/89/32 43/86/32
f 48/90/33 45/91/33 47/89/33
f 46/92/34 41/93/34 45/94/34
f 47/89/35 41/95/35 43/96/35
f 44/97/36 46/98/36 48/99/36
f 42/85/31 44/88/31 43/86/31
f 44/88/32 48/90/32 47/89/32
f 48/90/33 46/100/33 45/91/33
f 46/92/34 42/101/34 41/93/34
f 47/89/35 45/91/35 41/95/35
f 44/97/36 42/101/36 46/98/36
v 99.999985 59.499996 -85.000015
v 99.999985 64.499992 -85.000015
v 100.000000 59.500004 14.999985
v 100.000000 64.500008 14.999985
v -100.000000 59.499996 -84.999985
v -100.000000 64.499992 -84.999985
v -99.999985 59.500004 15.000015
v -99.999985 64.500008 15.000015
vt 0.625000 0.000000
vt 0.375000 0.250000
vt 0.375000 0.000000
vt 1.000000 0.000000
vt 0.000000 1.000000
vt 0.000000 0.000000
vt 0.625000 0.500000
vt 0.375000 0.750000
vt 0.375000 0.500000
vt 0.625000 0.750000
vt 0.375000 1.000000
vt 1.000000 0.000000
vt 0.000000 1.000000
vt 0.875000 0.500000
vt 0.625000 0.250000
vt 1.000000 1.000000
vt 0.625000 1.000000
vt 1.000000 1.000000
vt 0.875000 0.750000
vn 1.0000 0.0000 -0.0000
vn 0.0000 0.0000 1.0000
vn -1.0000 0.0000 0.0000
vn -0.0000 0.0000 -1.0000
vn 0.0000 -1.0000 0.0000
vn -0.0000 1.0000 -0.0000
s off
f 50/102/37 51/103/37 49/104/37
f 52/105/38 55/106/38 51/107/38
f 56/108/39 53/109/39 55/110/39
f 54/111/40 49/112/40 53/109/40
f 55/113/41 49/114/41 51/107/41
f 52/115/42 54/111/42 56/108/42
f 50/102/37 52/116/37 51/103/37
f 52/105/38 56/117/38 55/106/38
f 56/108/39 54/111/39 53/109/39
f 54/111/40 50/118/40 49/112/40
f 55/113/41 53/119/41 49/114/41
f 52/115/42 50/120/42 54/111/42
